<?xml version="1.0" encoding="utf-8"?>
<!-- Generator: Adobe Illustrator 20.1.0, SVG Export Plug-In . SVG Version: 6.00 Build 0)  -->
<svg version="1.1" id="Layer_1" xmlns="http://www.w3.org/2000/svg" xmlns:xlink="http://www.w3.org/1999/xlink" x="0px" y="0px"
	 viewBox="0 0 256 256" style="enable-background:new 0 0 256 256;" xml:space="preserve">
<style type="text/css">
	.st0{fill:#FCFCFC;}
</style>
<path class="st0" d="M128,86.8c1.6,0,3.3,0.6,4.5,1.9l56.7,56.7c2.5,2.5,2.5,6.6,0,9.1c-2.5,2.5-6.6,2.5-9.1,0L128,102.3l-52.2,52.2
	c-2.5,2.5-6.6,2.5-9,0c-2.5-2.5-2.5-6.6,0-9.1l56.7-56.7C124.7,87.5,126.4,86.8,128,86.8z M0,128c0,70.6,57.4,128,128,128
	s128-57.4,128-128S198.6,0,128,0S0,57.4,0,128z M12.8,128C12.8,64.5,64.5,12.8,128,12.8c63.5,0,115.2,51.7,115.2,115.2
	c0,63.5-51.7,115.2-115.2,115.2C64.5,243.2,12.8,191.5,12.8,128z"/>
</svg>
